# xmcd
# 
# Track frame offsets:
#     150
#     14980
#     29762
#     42537
#     56872
#     68132
#     81542
#     95162
#     108562
#     118020
# 
# Disc length: 1709
# 
# Revision: 2
# Processed by: cddbd v1.5.2PL0 Copyright (c) Steve Scherf et al.
# Submitted via: BonkEnc v1.0.6
# 
DISCID=9f06ab0a
DTITLE=George Jones - I Am What I Am
DYEAR=0
DGENRE=
TTITLE0=He Stopped Loving Her Today
TTITLE1=I've Aged Twenty Years In Five
TTITLE2=Brother To The Blues
TTITLE3=If Drinkin' Don't Kill Me (Her Memory Will)
TTITLE4=His Lovin' Her Is Gettin' In My Way
TTITLE5=I'm Not Ready Yet
TTITLE6=I'm The One She Missed Him With Today
TTITLE7=Good Hearted Woman
TTITLE8=A Hard Act To Follow
TTITLE9=Bone Dry
EXTD=
EXTT0=
EXTT1=
EXTT2=
EXTT3=
EXTT4=
EXTT5=
EXTT6=
EXTT7=
EXTT8=
EXTT9=
PLAYORDER=
